<?xml version="1.0" standalone="no"?><!DOCTYPE svg PUBLIC "-//W3C//DTD SVG 1.1//EN" "http://www.w3.org/Graphics/SVG/1.1/DTD/svg11.dtd"><svg t="1685284442694" class="icon" viewBox="0 0 1024 1024" version="1.1" xmlns="http://www.w3.org/2000/svg" p-id="11292" xmlns:xlink="http://www.w3.org/1999/xlink" width="200" height="200"><path d="M891.584 269.12l96.432-96.464-24.208-24.208-0.384-0.384 0.16 0.16-0.16-0.16-31.952-31.968L511.888 535.84l-147.68-147.728-56.528 56.56L511.888 648.96 827.904 332.8c15.648 77.056-18.688 148.496-73.632 205.408a71646.448 71646.448 0 0 0-242.368 252.256C262 529.152 185.2 477.728 192.32 358.544c10.784-181.472 257.648-205.856 279.664-38.112 5.072 38.816 70.32 47.328 79.792 0.256 2.304-11.392 11.84-112.32 126.144-112.32 19.856 0 40.24 4.256 59.12 11.728l59.888-59.92c-90.064-51.2-218.72-44.624-285.04 46.464-73.888-101.456-226.08-98.816-316.544-25.024-89.6 73.024-137.2 252.848 16.64 412.176 150.224 155.584 299.92 312.528 299.92 312.528s149.664-156.96 299.888-312.528c88.576-91.744 103.008-181.152 99.504-240a261.632 261.632 0 0 0-19.712-84.656z" fill="#ffffff" p-id="11293"></path></svg>