<?xml version="1.0" standalone="no"?><!DOCTYPE svg PUBLIC "-//W3C//DTD SVG 1.1//EN" "http://www.w3.org/Graphics/SVG/1.1/DTD/svg11.dtd"><svg t="1685284334365" class="icon" viewBox="0 0 1024 1024" version="1.1" xmlns="http://www.w3.org/2000/svg" p-id="7773" xmlns:xlink="http://www.w3.org/1999/xlink" width="200" height="200"><path d="M426.666667 128L341.333333 213.333333v85.333334H213.333333C164.266667 298.666667 133.12 341.333333 128 384L85.333333 810.666667c-5.12 42.666667 23.04 85.333333 85.333334 85.333333h682.666666c62.293333 0 90.453333-42.666667 85.333334-85.333333L896 384c-5.12-42.666667-40.106667-85.333333-85.333333-85.333333h-128V213.333333l-85.333334-85.333333h-170.666666m0 85.333333h170.666666v85.333334h-170.666666V213.333333m42.666666 213.333334h85.333334v128h128v85.333333h-128v128h-85.333334v-128H341.333333v-85.333333h128v-128z" fill="#ffffff" p-id="7774"></path></svg>