<?xml version="1.0" standalone="no"?><!DOCTYPE svg PUBLIC "-//W3C//DTD SVG 1.1//EN" "http://www.w3.org/Graphics/SVG/1.1/DTD/svg11.dtd"><svg t="1685284259285" class="icon" viewBox="0 0 1142 1024" version="1.1" xmlns="http://www.w3.org/2000/svg" p-id="3768" xmlns:xlink="http://www.w3.org/1999/xlink" width="223.046875" height="200"><path d="M1053.73800438 959.55994675l-147.59929682-147.59929675c2.38063313-2.38063313 2.38063313-7.14190205 0-9.52253522l-132.12517606-170.21531948c14.2838041-15.47412067 13.09348491-39.28045734-1.19031658-53.56426146l-405.89806869-405.89806606 47.61267856-47.61267594c9.5225352-9.5225352 9.5225352-23.80633927 0-33.32887452-9.5225352-9.5225352-23.80633927-9.5225352-33.32887452 0l-76.18028148 76.18028154-94.03503799-94.0350353 38.09014078-38.09014079c9.5225352-9.5225352 9.5225352-23.80633927 0-33.3288745-8.33221863-8.33221863-24.99665588-8.33221863-33.32887185 0l-154.74119883 154.74119882c-4.76126891 4.76126891-7.14190205 10.71285178-7.14190206 16.66443724s2.38063313 11.90316831 7.14190206 16.66443726c4.76126891 4.76126891 10.71285178 7.14190205 16.66443721 7.14190208s11.90316831-2.38063313 16.66443465-7.14190208l38.09014337-38.09014073 94.03503536 94.0350353-72.60933183 72.60933184c-9.5225352 9.5225352-9.5225352 23.80633927 0 33.32887445 4.76126891 4.76126891 10.71285178 7.14190205 16.66443722 7.14189942s11.90316831-2.38063313 16.66443728-7.14189942l44.04172363-44.04172622 405.89806872 405.89806609c7.14190205 7.14190205 16.66443725 11.90316831 27.37728897 11.9031683 9.5225352 0 19.04507036-3.57094966 26.18697248-9.52253517l170.21531681 132.12517872c1.19031655 1.19031655 3.57094966 1.19031655 4.76126891 1.19031658s3.57094966-1.19031655 4.76126629-2.38063312l147.59929936 147.5992967c4.76126891 4.76126891 10.71285178 7.14190205 16.66443461 7.1419021s11.90316831-2.38063313 16.66443728-7.1419021c11.90316831-10.71285178 11.90316831-26.18697243 2.38063316-35.70950758z" p-id="3769" fill="#ffffff"></path></svg>